PathFileType	4	(X/Y/Z)	./resultDataOpenSim/trcMotMarkerGrf/sub09/qtm-01-01.trc
DataRate	CameraRate	NumFrames	NumMarkers	Units	OrigDataRate	OrigDataStartFrame	OrigNumFrames
250.000000	250.000000	12	24	m	250.000000	245	488
Frame#	Time	L.Toe.Tip			R.Toe.Tip			L.Ankle.Lat			R.Ankle.Lat			L.Ankle.Med			R.Ankle.Med			L.Heel			R.Heel			L.Knee.Lat			R.Knee.Lat			L.Knee.Med			R.Knee.Med			L.Thigh.Upper			R.Thigh.Upper			L.ASIS			R.ASIS			V.Sacral			L.Acromium			R.Acromium			C7			L.Elbow			R.Elbow			L.Wrist.Lat			R.Wrist.Lat
		X1	Y1	Z1	X2	Y2	Z2	X3	Y3	Z3	X4	Y4	Z4	X5	Y5	Z5	X6	Y6	Z6	X7	Y7	Z7	X8	Y8	Z8	X9	Y9	Z9	X10	Y10	Z10	X11	Y11	Z11	X12	Y12	Z12	X13	Y13	Z13	X14	Y14	Z14	X15	Y15	Z15	X16	Y16	Z16	X17	Y17	Z17	X18	Y18	Z18	X19	Y19	Z19	X20	Y20	Z20	X21	Y21	Z21	X22	Y22	Z22	X23	Y23	Z23	X24	Y24	Z24

245	0.976	0.14980338	0.039125511	0.025775924	0.40337574	0.12038504	0.15958784	0.00190094	0.080658461	-0.0060385527	0.25911418	0.15030846	0.1777372	0.027904651	0.098641013	0.089572535	0.28480565	0.1831239	0.086082955	-0.070426393	0.053657709	0.041980309	0.19455606	0.13162483	0.12112719	0.12796596	0.47749551	-0.064575776	0.39943714	0.57307777	0.22522026	0.13060281	0.47952858	0.061191639	0.41002001	0.56134264	0.0982967	0.16451994	0.90024311	-0.11701951	0.17501221	0.9083705	0.25397614	0.25768061	0.98198326	-0.05750845	0.2519827	0.99284949	0.18142189	0.091924592	1.0450252	0.059126244	0.27435197	1.4340513	-0.098625371	0.2217242	1.4537093	0.22681813	0.1823347	1.495381	0.054050743	0.15478681	1.0825791	-0.17114182	0.081107858	1.1196953	0.30355219	0.34279436	0.88999832	-0.17549758	0.19011175	0.87529966	0.3432423
246	0.98	0.14979558	0.039108115	0.025743074	0.42281533	0.11971433	0.15949798	0.001875688	0.081129589	-0.0056134098	0.27774712	0.14615749	0.17732165	0.028255843	0.0990156	0.089884107	0.30281434	0.17970496	0.085862254	-0.070336918	0.054306046	0.042622351	0.21407783	0.12596556	0.12036002	0.12843431	0.47787242	-0.064370254	0.40658201	0.5737194	0.2251122	0.13140397	0.47985745	0.06135582	0.41749023	0.56174717	0.09831468	0.16925894	0.9000804	-0.11700478	0.1812238	0.90802596	0.25410208	0.2631292	0.98157565	-0.057816809	0.258108	0.99240019	0.18121714	0.097742235	1.0446299	0.059546474	0.28008265	1.433688	-0.098631656	0.22778669	1.453262	0.2269008	0.18817378	1.4950575	0.054062497	0.16099326	1.081923	-0.17120787	0.087070976	1.1193531	0.30366434	0.34982057	0.89020223	-0.17489863	0.1956019	0.8748384	0.34362842
247	0.984	0.14977471	0.039100718	0.025706341	0.44222418	0.11905363	0.15951771	0.0018497316	0.081612726	-0.0051490751	0.29635149	0.14216953	0.17697259	0.028671699	0.099410713	0.090185208	0.32092476	0.17636842	0.085661795	-0.070244879	0.054981454	0.043415732	0.23347893	0.12054679	0.11979993	0.12887112	0.47827268	-0.064162363	0.41467269	0.57437744	0.22489751	0.13240283	0.48018036	0.061425955	0.42516883	0.56198722	0.098072715	0.17388029	0.89985827	-0.11710877	0.18743582	0.90763471	0.25422834	0.26859216	0.98112432	-0.058109381	0.2642711	0.99188674	0.1810176	0.10356321	1.0441943	0.059926169	0.28580965	1.4332937	-0.098633321	0.23385657	1.4527781	0.22698202	0.19404016	1.4946715	0.054129668	0.16701174	1.0812269	-0.17105585	0.093025399	1.1189634	0.3037932	0.35682041	0.8903679	-0.17429816	0.20110313	0.87434152	0.3440379
248	0.988	0.1497462	0.039107654	0.025663005	0.46158048	0.11843999	0.15965172	0.0018129449	0.082122939	-0.0046400233	0.31494522	0.1383646	0.17668834	0.029185577	0.099825957	0.090453273	0.33913461	0.17312975	0.085473573	-0.070150283	0.055683306	0.044382604	0.25279869	0.11536588	0.11941798	0.12926193	0.47867857	-0.06397833	0.42407009	0.57498459	0.22453262	0.13348082	0.48053728	0.061461003	0.43299552	0.56203447	0.097634994	0.17833265	0.89955525	-0.11735824	0.19365011	0.90719585	0.25435553	0.27407275	0.9806351	-0.058383724	0.27047113	0.99130827	0.18082304	0.10940123	1.0437179	0.060287974	0.29153356	1.4328652	-0.098627369	0.23993755	1.4522547	0.2270643	0.19994585	1.494221	0.054262643	0.17294997	1.0804794	-0.17081356	0.098975127	1.1185302	0.3039376	0.36379395	0.89049267	-0.17369965	0.20659852	0.87380722	0.34446067
249	0.992	0.14972109	0.039127208	0.025610316	0.4808796	0.11790135	0.15989756	0.0017635784	0.082665695	-0.004098862	0.33358078	0.13474642	0.17645108	0.029763275	0.10026468	0.090709309	0.35742892	0.17000599	0.085297051	-0.070051784	0.056417094	0.045437043	0.27221379	0.11038126	0.11905079	0.1296244	0.47908204	-0.063826808	0.43402439	0.57542825	0.22416009	0.13455668	0.48096588	0.061505829	0.44069377	0.56186117	0.097225523	0.18272012	0.89918746	-0.11766107	0.19986604	0.9067031	0.25447954	0.27957387	0.98010673	-0.058651949	0.27670465	0.99066634	0.18063135	0.1152702	1.0431942	0.060644495	0.29725813	1.4324009	-0.098609273	0.24603429	1.4516906	0.22715197	0.20587713	1.493723	0.054434521	0.17898016	1.079692	-0.17066371	0.10491668	1.1180689	0.30408582	0.37074152	0.8905744	-0.17310522	0.21210591	0.8732397	0.34488605
250	0.996	0.14971324	0.039149463	0.025547234	0.50013891	0.11743499	0.16024063	0.0017020589	0.083240636	-0.0035258161	0.35229578	0.13130296	0.17623879	0.030336258	0.10072851	0.091009941	0.37578827	0.16701738	0.085133804	-0.069936948	0.057193616	0.046458977	0.29182967	0.10557355	0.11858285	0.13001766	0.4795091	-0.063685188	0.44256938	0.57576401	0.2243193	0.1356302	0.48146374	0.06158351	0.44800972	0.56146684	0.097032167	0.18725296	0.89881332	-0.1178631	0.20608224	0.90614548	0.25459551	0.28509677	0.97953087	-0.058932385	0.2829684	0.98996504	0.18044311	0.12117916	1.0426178	0.0609967	0.30298669	1.4319019	-0.098577989	0.25214921	1.4510871	0.22724733	0.21181426	1.493179	0.054620549	0.18516163	1.0788898	-0.17066291	0.11084914	1.1175992	0.30422755	0.37766082	0.89061317	-0.17251271	0.21764875	0.87263972	0.34531606
251	1	0.14972741	0.039162101	0.025481517	0.51938983	0.11701798	0.16065884	0.0016300989	0.08385859	-0.0029072813	0.37109705	0.12801712	0.17604895	0.030880834	0.10121903	0.091388135	0.39419995	0.16418266	0.084985809	-0.069787883	0.058019855	0.047419894	0.31164913	0.10095725	0.11797985	0.13049382	0.47999411	-0.063531293	0.44753429	0.57642255	0.22587321	0.13676894	0.48197909	0.061667482	0.45489805	0.5608847	0.097073641	0.19205673	0.8984778	-0.11788512	0.21230461	0.90552022	0.25470414	0.29064384	0.97890269	-0.059230045	0.28926207	0.98920309	0.18026004	0.12713348	1.0419935	0.061345453	0.30871838	1.4313704	-0.098537963	0.25828049	1.4504442	0.22734898	0.2177478	1.4925642	0.054814891	0.19140624	1.0780941	-0.1707127	0.11679774	1.1171253	0.30436536	0.38454863	0.89061096	-0.17191691	0.22323527	0.87200064	0.34575839
252	1.004	0.14975377	0.03916168	0.025424861	0.53864922	0.11665015	0.16113312	0.0015600018	0.084533752	-0.0022508114	0.38994977	0.12488535	0.17590955	0.031421754	0.10174176	0.091827876	0.41265277	0.16151121	0.084861441	-0.069594804	0.058896469	0.048373313	0.33162238	0.096560911	0.11726416	0.13105586	0.48053692	-0.063371724	0.4482376	0.57784752	0.22921303	0.13799791	0.48245023	0.061729306	0.46147403	0.56015054	0.097269073	0.19709356	0.89817765	-0.11775959	0.21853521	0.90483112	0.25480811	0.29622314	0.97822598	-0.059533522	0.29558847	0.98837227	0.180082	0.13314174	1.0413378	0.061699777	0.31445073	1.4308076	-0.098495993	0.26442371	1.4497609	0.22745462	0.22369597	1.4918607	0.055037342	0.19758576	1.0772997	-0.17067144	0.12281005	1.1166223	0.30451468	0.39140651	0.89057135	-0.17131547	0.22886101	0.87131898	0.34621525
253	1.008	0.1497831	0.039155159	0.025376003	0.55789185	0.11638009	0.16164823	0.0015131123	0.085260448	-0.0015880813	0.40877145	0.12193056	0.17585156	0.031984373	0.10230186	0.092293259	0.43112251	0.15900855	0.084783291	-0.069362766	0.059818087	0.04936288	0.35164648	0.092412324	0.11652411	0.13168191	0.48110638	-0.063229496	0.4468434	0.57967592	0.2333456	0.13917397	0.48284005	0.061840462	0.46787092	0.55927265	0.097557144	0.20225081	0.89788488	-0.11755869	0.2247641	0.90407716	0.25490932	0.30184123	0.97750601	-0.059828675	0.3019541	0.98746822	0.17990891	0.13922004	1.0406749	0.062069924	0.3201841	1.4302115	-0.098454401	0.27057805	1.4490389	0.22756419	0.22969235	1.4910912	0.055318524	0.20363257	1.0764787	-0.1704649	0.12890408	1.1160594	0.30469304	0.39823975	0.89049687	-0.17071127	0.23452436	0.87060196	0.34668305
254	1.012	0.14981453	0.039152263	0.025324999	0.57706683	0.11628241	0.16219072	0.0015016296	0.086011672	-0.0009283402	0.42750081	0.11918199	0.17587093	0.032578853	0.10289822	0.092762079	0.44957119	0.15669202	0.084779814	-0.069103933	0.060775971	0.050391309	0.37160756	0.088528611	0.11587616	0.13236656	0.48167617	-0.063122655	0.44692211	0.58083642	0.23653437	0.1400634	0.48314514	0.062134631	0.4741622	0.55824143	0.097914055	0.20743677	0.89757434	-0.11733487	0.23098642	0.90325792	0.25501231	0.30749041	0.9767433	-0.060112174	0.30836998	0.98649707	0.17974285	0.14536999	1.0400182	0.062437661	0.32592093	1.4295782	-0.098408493	0.27674646	1.4482797	0.2276772	0.23572171	1.4903045	0.055633683	0.20957492	1.0756136	-0.17013008	0.13500372	1.1154361	0.30490716	0.40505109	0.89038646	-0.17010676	0.24023045	0.86985801	0.34715863
255	1.016	0.14984387	0.039159118	0.025279957	0.59614421	0.11641571	0.16274189	0.0015200172	0.086763572	-0.00025350907	0.44616089	0.11664858	0.17593737	0.0332064	0.10352326	0.093229438	0.46795859	0.15458964	0.084859876	-0.068825619	0.061766366	0.051441833	0.39145951	0.084914268	0.11539277	0.13312217	0.48224379	-0.063057725	0.45008502	0.58071831	0.23801929	0.14064943	0.48341082	0.062613418	0.48036388	0.55705475	0.098315141	0.21260646	0.89722768	-0.11710152	0.23720532	0.90237781	0.2551194	0.31315158	0.97593643	-0.060390643	0.3148458	0.98547034	0.17958449	0.15153485	1.0393433	0.062728919	0.33166431	1.4289077	-0.098352124	0.28293124	1.4474823	0.22779219	0.24171797	1.4895249	0.055901486	0.21549607	1.0747098	-0.16976816	0.14093506	1.1147857	0.30514931	0.41183838	0.89023627	-0.1695021	0.24598185	0.8690864	0.34764163
256	1.02	0.14986136	0.03917499	0.025268241	0.61512698	0.11680755	0.16326091	0.0015536906	0.087521785	0.00043327619	0.4647989	0.11433461	0.17603692	0.033860838	0.10416793	0.093688955	0.48624525	0.15272478	0.085006815	-0.068531801	0.062792032	0.052491479	0.41121455	0.081568241	0.11508855	0.13395814	0.48281657	-0.063034016	0.4552756	0.57961009	0.23837087	0.14128798	0.48371689	0.063063646	0.4864687	0.55572008	0.09872395	0.21774453	0.89683345	-0.1168453	0.2434199	0.90143468	0.2552276	0.3188101	0.97508575	-0.060667428	0.32137968	0.98439446	0.17942956	0.15762726	1.038599	0.062863972	0.33741657	1.428202	-0.098283996	0.28913289	1.4466466	0.22791102	0.24766961	1.4887248	0.056105296	0.22145354	1.0737758	-0.16945219	0.14656481	1.1141386	0.30540374	0.41859812	0.89004125	-0.16889938	0.2517741	0.86828132	0.34813144
